<svg xmlns="http://www.w3.org/2000/svg" viewBox="0 0 24 24"><path d="m5.145 19.513-.006-.008-.008-.009z"/><path fill="#2C2255" d="M6.605 15.1h-3.68c.487 1.671 1.391 3.169 2.715 4.493 2.11 2.111 4.648 3.164 7.615 3.164.593 0 1.168-.044 1.726-.128 2.235-.337 4.192-1.348 5.869-3.036 1.332-1.324 2.243-2.822 2.734-4.493H6.605zm-2.029-4.998H2.654c-.072.429-.118.862-.14 1.296h21.485c-.022-.442-.07-.873-.141-1.296H4.576zm-2.062 2.499c.022.442.069.874.14 1.296h21.205c.072-.429.119-.861.141-1.296H2.514zm21.071-3.702c-.491-1.676-1.401-3.181-2.734-4.514-1.672-1.672-3.624-2.676-5.852-3.013a11.562 11.562 0 0 0-1.743-.13c-2.967 0-5.505 1.048-7.615 3.144-1.325 1.332-2.23 2.837-2.716 4.513h20.66z"/><path fill="#F7941E" d="M1.875 12c0-5.676 4.263-10.392 9.808-11.221-.138-.005-.276-.011-.415-.011C5.045.769 0 5.797 0 12c0 6.203 5.045 11.231 11.268 11.231.139 0 .278-.005.416-.01C6.137 22.392 1.875 17.676 1.875 12z"/><linearGradient id="a" x1="-268.222" x2="-268.222" y1="517.796" y2="517.916" gradientTransform="matrix(1518.0859 0 0 -134.5215 407197.75 69678.883)" gradientUnits="userSpaceOnUse"><stop offset=".303" stop-color="#473788"/><stop offset=".872" stop-color="#2c2255"/></linearGradient><path fill="url(#a)" d="M20.568 11.398a7.395 7.395 0 0 0-.222-1.296H6.167a7.38 7.38 0 0 0-.223 1.296h14.624z"/><linearGradient id="b" x1="-268.222" x2="-268.222" y1="519.724" y2="519.844" gradientTransform="matrix(1518.0664 0 0 -134.5313 407192.563 69943.313)" gradientUnits="userSpaceOnUse"><stop offset=".303" stop-color="#473788"/><stop offset=".872" stop-color="#2c2255"/></linearGradient><path fill="url(#b)" d="M20.568 12.601H5.945c.035.438.109.871.222 1.296h14.178a7.29 7.29 0 0 0 .223-1.296z"/><linearGradient id="c" x1="-268.294" x2="-268.294" y1="512.175" y2="512.212" gradientTransform="matrix(1380.9766 0 0 -439.9219 370521.031 225341.203)" gradientUnits="userSpaceOnUse"><stop offset=".303" stop-color="#473788"/><stop offset=".863" stop-color="#2c2255"/></linearGradient><path fill="url(#c)" d="M13.256 19.338a7.338 7.338 0 0 0 6.651-4.238H6.605a7.338 7.338 0 0 0 6.651 4.238z"/><path fill="#FFF" d="M4.861 12.601h19.123a10.783 10.783 0 0 0-.004-1.203H2.514a10.783 10.783 0 0 0-.004 1.203h2.351zm1.701-3.702H2.924c-.12.392-.197.794-.271 1.204H23.79c-.073-.406-.17-.808-.289-1.204H6.562zm15.846 4.998H2.653c.072.409.154.811.272 1.204h20.646c.118-.395.213-.797.284-1.204h-1.447z"/></svg>