<svg xmlns="http://www.w3.org/2000/svg" enable-background="new 0 0 256 256" viewBox="0 0 256 256"><path fill="#3193F3" d="M183.133,15.627v0.001c-2.221-1.479-5.323-1.533-7.631,0.557L84.126,99.013L40.975,66.339
				c-1.672-1.266-4.003-1.188-5.587,0.188L13.075,85.913c-2.007,1.744-2.04,4.849-0.07,6.635l39.126,35.465l-39.126,35.465
				c-1.97,1.786-1.937,4.891,0.07,6.635l22.313,19.386c1.584,1.376,3.914,1.454,5.587,0.188l43.369-32.476l91.158,82.63
				c2.308,2.09,5.421,2.036,7.631,0.557v0.004l61.316-34.579V47.878L183.133,15.627z M183.133,173.977l-60.708-45.964l60.708-45.975
				V173.977z"/><path fill="#35B1FC" d="M28.41,163.476l39.129-35.463L28.41,92.55c-1.972-1.787-1.941-4.899,0.072-6.634l17.86-15.518
				l-5.361-4.057c-1.674-1.263-4.005-1.191-5.587,0.185l-22.317,19.39c-2.013,1.736-2.044,4.847-0.072,6.634l39.129,35.463
				l-39.129,35.463c-1.972,1.787-1.941,4.899,0.072,6.634l22.317,19.39c1.582,1.376,3.913,1.448,5.587,0.185l5.392-4.036
				L28.482,170.11C26.469,168.374,26.438,165.263,28.41,163.476z"/><path fill="#307FED" d="M183.129,15.627c-2.218-1.479-5.32-1.53-7.631,0.554l-2.465,2.239l56.013,29.455v157.944l-56.157,31.663
				l2.609,2.362c2.311,2.085,5.423,2.033,7.631,0.554l61.323-34.579V47.875L183.129,15.627z"/><path fill="#5F266D" d="M246.311,44.338l-61.259-32.221c-3.924-2.435-8.794-2.012-12.237,1.105L83.898,93.821L43.39,63.15
			c-3.163-2.394-7.63-2.244-10.625,0.357L10.452,82.893c-3.814,3.313-3.876,9.225-0.133,12.618l35.856,32.501l-35.856,32.502
			c-3.744,3.393-3.681,9.304,0.133,12.618l22.313,19.387c2.996,2.601,7.463,2.75,10.625,0.356l40.505-30.671l88.92,80.601
			c3.205,2.901,8.025,3.603,12.087,1.173c0.359-0.178,61.161-34.475,61.51-34.672c1.258-0.709,2.035-2.041,2.035-3.484V47.878
			C248.449,46.393,247.626,45.03,246.311,44.338z M38.56,186.498c-0.162,0.124-0.395,0.116-0.549-0.018l-22.313-19.386
			c-0.198-0.172-0.201-0.476-0.006-0.651l36.439-33.03l25.732,23.325L38.56,186.498z M179.134,237.39
			c-0.319-0.082-0.64-0.238-0.945-0.513C171.032,230.389,22.792,96.02,15.692,89.584c-0.196-0.177-0.191-0.481,0.006-0.652
			l22.313-19.386c0.153-0.135,0.386-0.143,0.549-0.019c2.036,1.542,138.883,105.157,140.573,106.438V237.39z M179.134,165.931
			l-50.08-37.919l50.08-37.927V165.931z M179.134,80.049l-56.707,42.945L90.388,98.736l87.799-79.585
			c0.319-0.289,0.64-0.447,0.946-0.525V80.049z M240.449,203.485l-53.315,30.067V22.251l53.315,28.043V203.485z"/><path fill="#5F266D" d="M223.759 111.417c2.209 0 4-1.791 4-4V99.44c0-2.209-1.791-4-4-4s-4 1.791-4 4v7.977C219.759 109.626 221.55 111.417 223.759 111.417zM223.759 88.44c2.209 0 4-1.791 4-4v-19c0-2.209-1.791-4-4-4s-4 1.791-4 4v19C219.759 86.649 221.55 88.44 223.759 88.44z"/></svg>